<?xml version="1.0" standalone="no"?>
<!DOCTYPE svg PUBLIC "-//W3C//DTD SVG 20010904//EN"
 "http://www.w3.org/TR/2001/REC-SVG-20010904/DTD/svg10.dtd">
<svg version="1.0" xmlns="http://www.w3.org/2000/svg"
 width="1043.000000pt" height="1043.000000pt" viewBox="0 0 1043.000000 1043.000000"
 preserveAspectRatio="xMidYMid meet">

<g transform="translate(0.000000,1043.000000) scale(0.100000,-0.100000)"
fill="#000000" stroke="none">
<path d="M5004 7869 c-406 -39 -854 -210 -1199 -459 -44 -32 -89 -68 -100 -80
-11 -12 -27 -26 -37 -31 -20 -11 43 86 78 119 15 14 24 34 24 52 0 25 -4 30
-24 30 -33 0 -50 -24 -42 -61 8 -41 -38 -107 -184 -264 -198 -212 -353 -413
-416 -537 -14 -28 -27 -48 -30 -46 -4 5 29 152 45 201 6 16 6 27 0 27 -5 0 -9
18 -9 40 0 34 4 42 24 50 40 15 55 54 59 155 2 35 -1 40 -20 43 -16 2 -23 -2
-23 -14 0 -13 3 -14 14 -5 11 10 16 8 20 -7 8 -24 -9 -71 -32 -88 -15 -11 -19
-6 -33 39 l-17 52 -12 -30 c-6 -16 -14 -42 -17 -57 -5 -25 -6 -26 -23 -10 -23
21 -40 64 -40 99 0 22 2 24 16 12 13 -10 17 -10 25 2 5 8 9 20 9 27 0 7 5 22
11 33 10 20 11 20 24 2 13 -17 14 -17 20 0 4 9 2 24 -5 32 -7 9 -11 18 -8 21
9 8 36 -41 41 -72 3 -22 4 -19 6 14 1 51 -13 82 -38 82 -25 0 -40 -20 -56 -72
-11 -38 -15 -43 -38 -40 -18 2 -27 -2 -32 -18 -4 -11 -3 -26 2 -33 15 -20 36
-94 29 -105 -9 -15 33 -62 56 -62 20 0 20 -4 15 -92 -6 -111 -34 -222 -83
-332 -96 -218 -254 -737 -254 -838 0 -18 -4 -51 -8 -73 -7 -39 -7 -37 -14 30
-20 186 -20 241 -4 298 9 30 16 66 15 79 -1 18 -3 15 -11 -12 -10 -36 -28 -64
-35 -56 -5 4 -33 117 -38 151 -2 11 -6 39 -10 61 -6 36 -5 43 12 48 28 9 46
52 33 77 -8 15 -6 25 10 46 11 16 23 49 26 76 7 46 6 47 -19 47 -14 0 -29 -4
-32 -10 -12 -20 -25 -9 -25 22 0 44 -38 117 -67 131 -22 10 -28 8 -44 -12 -11
-13 -19 -32 -19 -43 0 -18 -2 -18 -32 5 -27 19 -42 23 -80 19 -33 -3 -47 -9
-51 -21 -4 -15 17 -93 37 -142 6 -13 0 -18 -26 -23 -40 -9 -82 -57 -73 -85 8
-25 99 -65 151 -65 39 -1 41 -3 40 -30 -1 -38 24 -54 62 -40 27 10 31 8 54
-20 27 -34 52 -96 39 -96 -5 0 0 -17 10 -37 17 -37 39 -163 39 -226 l0 -32
-23 39 c-30 53 -54 67 -72 42 -14 -18 -13 -35 2 -89 4 -15 12 -18 34 -15 68
10 88 -101 87 -502 0 -277 21 -463 78 -694 14 -54 22 -101 19 -104 -3 -3 -5
-1 -5 5 0 5 -25 48 -56 94 -75 112 -115 200 -120 260 -3 52 -9 69 -24 69 -6 0
-7 -21 -4 -47 l6 -48 -40 66 c-23 37 -49 86 -58 109 -17 42 -17 43 4 59 16 12
23 32 28 74 7 58 4 62 -32 58 -7 -1 -9 20 -6 58 5 65 -9 120 -37 145 -17 16
-20 14 -54 -23 l-36 -40 -31 49 c-34 53 -44 58 -105 56 -37 -1 -39 -3 -48 -41
-4 -22 -5 -59 -2 -83 l6 -42 -38 6 c-49 7 -93 -9 -93 -35 0 -11 6 -22 13 -25
10 -5 10 -7 0 -12 -36 -17 -1 -86 61 -119 39 -21 44 -30 22 -38 -26 -10 -46
-63 -43 -113 2 -48 3 -49 32 -46 17 1 50 3 75 3 50 0 70 12 70 42 0 23 37 87
51 87 6 0 7 -9 4 -20 -14 -43 45 -68 79 -34 15 14 19 13 46 -6 16 -11 54 -58
83 -103 104 -159 113 -179 60 -137 -32 25 -81 26 -90 3 -8 -21 18 -67 41 -71
10 -2 29 2 42 8 19 11 27 10 46 -2 52 -34 177 -249 241 -415 31 -78 93 -215
140 -306 l84 -165 -89 77 c-49 42 -116 100 -151 129 -41 35 -64 63 -68 82 -7
33 -3 40 22 40 23 0 59 46 59 75 0 29 -30 55 -63 55 -25 0 -27 3 -27 45 0 32
-6 51 -20 65 -27 27 -36 25 -73 -11 -29 -30 -31 -30 -44 -13 -27 39 -67 74
-84 74 -28 0 -53 -45 -45 -81 6 -30 5 -31 -22 -23 -30 9 -83 8 -119 -1 -27 -6
-32 -42 -8 -52 14 -5 14 -8 -2 -25 -16 -18 -16 -22 -2 -46 8 -15 37 -38 65
-52 l50 -25 -23 -34 c-24 -35 -31 -95 -13 -106 5 -3 10 -17 10 -31 0 -21 5
-24 34 -24 18 0 45 9 59 20 32 26 32 26 47 -10 7 -16 21 -32 31 -35 24 -8 87
22 94 45 3 9 14 25 25 35 11 10 20 31 20 47 l0 29 38 -28 c20 -15 62 -50 93
-78 31 -27 99 -87 152 -133 82 -71 251 -260 241 -271 -1 -2 -17 7 -33 19 -17
11 -64 37 -105 56 -41 19 -78 39 -81 44 -3 6 -11 10 -16 10 -6 0 -7 -5 -3 -11
5 -9 -7 -10 -47 -5 -30 4 -58 14 -62 22 -15 27 -51 54 -84 63 -38 11 -73 4
-73 -13 0 -23 13 -26 32 -10 14 14 20 14 33 4 8 -7 15 -17 15 -23 0 -6 7 -18
15 -27 14 -16 11 -16 -43 -2 -33 9 -69 12 -86 8 -36 -9 -130 -96 -117 -109 5
-5 7 -25 4 -43 -5 -31 -4 -34 21 -34 16 0 26 -5 26 -15 0 -8 5 -15 10 -15 10
0 14 15 11 34 -1 5 16 6 38 2 33 -5 44 -2 69 19 19 15 33 21 37 15 11 -18 37
-10 66 21 16 17 29 42 29 55 0 22 4 24 44 24 58 0 160 -32 219 -69 26 -17 47
-32 47 -35 0 -2 -15 -4 -34 -4 -49 0 -74 -10 -81 -33 -9 -27 12 -49 46 -49 18
0 30 6 34 19 5 18 10 18 58 7 72 -17 87 -26 190 -119 164 -149 337 -277 482
-356 l40 -22 -35 5 c-200 29 -204 29 -236 61 -36 37 -137 70 -186 62 -18 -3
-56 -19 -83 -36 -28 -16 -63 -32 -79 -35 -76 -13 -68 -66 10 -64 34 0 51 -5
69 -22 16 -15 41 -24 73 -28 l48 -4 -4 -35 -4 -35 43 7 c76 11 97 24 129 79
l29 52 113 -17 c140 -21 191 -34 348 -91 69 -25 168 -56 220 -68 94 -22 95
-23 95 -53 0 -42 44 -75 82 -61 31 11 46 54 19 54 -9 0 -16 -7 -16 -16 0 -21
-39 -15 -54 8 -19 31 3 39 74 27 36 -6 86 -8 113 -4 51 6 53 5 36 -27 -9 -16
-8 -24 5 -36 14 -14 22 -14 88 1 40 10 92 28 115 41 35 20 44 22 53 11 9 -11
7 -19 -10 -37 -12 -13 -29 -35 -38 -50 -20 -34 -24 -34 -37 -5 -6 12 -19 22
-30 22 -29 0 -34 -59 -7 -74 35 -18 75 4 115 65 l37 56 11 -26 c15 -33 -7 -97
-39 -111 -27 -12 -30 -45 -4 -45 12 0 25 -15 36 -41 29 -65 58 -63 91 7 16 33
15 38 -6 110 -12 41 -18 78 -14 82 4 4 10 2 12 -5 2 -7 14 -25 26 -40 12 -15
22 -39 22 -53 0 -15 6 -26 18 -28 34 -7 29 27 -13 83 -55 74 -44 111 18 65 33
-25 172 -34 179 -12 3 9 -12 12 -57 12 -55 0 -120 20 -120 37 0 3 48 2 108 -2
133 -10 149 -10 240 0 49 5 72 5 72 -3 0 -24 -13 -42 -31 -42 -12 0 -16 5 -13
15 7 18 -21 21 -32 3 -8 -13 30 -48 52 -48 24 0 54 39 54 70 0 26 5 31 41 40
22 6 120 40 217 74 263 95 376 108 389 45 7 -36 79 -104 96 -91 8 7 40 5 91
-4 43 -7 83 -11 87 -8 16 9 10 40 -15 76 l-23 35 33 18 c19 10 34 22 34 26 0
16 -56 50 -109 66 -47 13 -63 14 -101 4 -25 -7 -54 -21 -65 -31 -15 -14 -45
-22 -100 -28 -44 -5 -82 -8 -83 -6 -2 1 20 15 50 30 76 39 169 98 273 174 108
79 149 103 229 136 122 51 179 65 227 59 l46 -6 -5 -50 c-8 -82 38 -128 74
-73 l17 26 21 -43 c28 -58 86 -104 120 -95 34 8 60 59 53 105 l-4 37 68 -4
c62 -4 70 -2 94 22 19 19 24 32 19 49 -8 28 -52 87 -65 87 -5 0 9 18 32 41 52
52 50 76 -11 107 -34 17 -55 22 -86 18 l-41 -5 10 38 c11 42 4 86 -16 94 -8 3
-39 -5 -69 -17 -53 -22 -56 -22 -67 -4 -16 25 -36 23 -87 -13 -42 -29 -45 -34
-42 -71 2 -35 -1 -42 -25 -54 -21 -11 -27 -22 -27 -47 0 -18 6 -42 14 -52 12
-17 10 -21 -19 -40 -17 -12 -49 -25 -71 -29 -52 -10 -172 -52 -201 -71 -13 -9
-23 -14 -23 -12 0 1 51 54 113 117 111 114 194 216 324 400 71 99 149 182 195
206 49 25 78 34 78 24 0 -6 -9 -10 -20 -10 -21 0 -27 -15 -10 -25 15 -10 47 4
55 23 9 25 -21 43 -52 31 -14 -5 -28 -8 -30 -6 -7 8 68 67 117 92 60 30 77 31
85 5 10 -33 57 -50 132 -49 37 1 79 4 93 8 30 8 38 45 15 70 -15 17 -14 19 13
30 39 16 116 96 110 113 -3 7 -33 19 -66 27 -48 10 -68 11 -97 1 -20 -7 -38
-10 -40 -8 -3 2 -1 18 4 35 12 41 0 57 -35 49 -42 -11 -105 -85 -134 -156 -21
-53 -33 -67 -78 -96 -29 -19 -55 -34 -58 -34 -2 0 7 20 21 43 25 44 33 87 16
87 -21 0 -58 -66 -59 -104 0 -34 -8 -46 -67 -105 l-67 -66 32 63 c17 35 60
131 95 214 61 143 154 318 192 364 32 37 79 64 91 52 18 -18 61 0 68 27 13 54
-21 72 -73 38 -25 -17 -26 -17 -15 3 5 11 32 49 58 84 27 36 60 83 75 104 15
21 40 44 56 51 25 11 32 10 52 -6 28 -23 54 -24 76 -3 14 14 18 15 33 1 27
-23 119 -42 137 -27 21 18 19 53 -6 84 -12 15 -20 28 -18 29 2 1 21 11 42 21
20 11 47 35 59 54 l21 35 -27 24 c-20 17 -39 23 -72 23 l-45 0 14 28 c31 60
31 144 2 156 -24 9 -87 -18 -118 -51 -17 -18 -34 -33 -38 -33 -4 0 -10 15 -13
33 -3 19 -18 45 -32 58 l-26 24 -29 -35 c-40 -47 -47 -94 -27 -180 2 -8 -3
-14 -11 -12 -43 9 -57 -75 -20 -122 21 -26 21 -29 5 -70 -14 -35 -129 -206
-140 -206 -2 0 1 21 5 47 5 25 7 48 4 51 -6 6 -11 -8 -33 -93 -17 -67 -126
-274 -145 -275 -5 0 -6 3 -3 8 11 19 58 268 76 405 10 84 24 274 30 422 13
343 33 435 95 435 18 0 31 10 45 33 24 39 25 60 5 77 -22 18 -56 -2 -83 -48
-18 -30 -22 -33 -22 -15 0 47 25 129 47 154 28 31 33 70 6 48 -14 -12 -16 -12
-11 1 2 8 13 38 23 67 28 78 52 104 102 107 53 4 75 21 71 55 -3 28 -41 42
-61 22 -6 -6 -16 -11 -21 -11 -6 0 3 10 21 21 l32 20 29 -21 c53 -40 172 -35
172 7 0 8 18 35 40 60 59 68 52 96 -28 109 -23 4 -42 8 -42 11 0 2 8 20 19 41
23 47 32 94 21 111 -12 20 -95 8 -131 -18 -15 -12 -30 -21 -32 -21 -2 0 -9 18
-16 40 -15 50 -35 70 -71 70 -31 0 -65 -43 -76 -97 l-6 -30 -40 20 c-55 28
-72 16 -76 -53 -4 -69 2 -91 34 -130 25 -29 26 -32 9 -50 -29 -32 3 -110 45
-110 15 0 16 -7 9 -47 -4 -27 -13 -61 -19 -78 -7 -16 -23 -66 -35 -110 -20
-66 -24 -74 -25 -45 -1 19 -2 55 -3 80 -2 53 -17 65 -35 27 -11 -23 -10 -34 5
-74 21 -58 21 -211 0 -343 l-13 -85 -8 65 c-35 294 -104 551 -219 805 -27 61
-65 146 -84 190 -37 85 -78 239 -68 255 3 6 1 10 -4 10 -6 0 -11 16 -11 35 0
26 8 42 30 63 22 19 33 43 42 82 22 106 12 153 -24 117 -13 -13 -16 -9 -28 32
-7 25 -14 56 -16 69 -7 52 -47 69 -65 28 -9 -18 -18 -23 -43 -22 -28 1 -31 -2
-34 -33 -2 -18 1 -38 7 -44 8 -8 11 -2 11 22 0 47 24 34 31 -17 3 -23 9 -45
14 -49 4 -5 5 9 2 30 -5 33 6 53 15 27 2 -7 11 -5 23 4 17 14 18 17 5 26 -8 5
-21 8 -28 5 -8 -3 -6 4 4 21 19 29 25 25 47 -34 18 -45 21 -104 7 -137 -8 -18
-9 -18 -10 5 -1 14 -4 20 -6 14 -3 -7 -14 -9 -26 -6 -18 4 -20 1 -16 -30 4
-34 3 -35 -22 -26 -27 9 -50 54 -50 96 0 12 -4 22 -9 22 -18 0 -19 -28 0 -69
10 -24 17 -46 14 -50 -7 -13 35 -72 64 -89 25 -14 30 -26 41 -86 7 -39 21 -98
31 -131 10 -32 17 -60 15 -62 -1 -2 -29 40 -62 93 -85 138 -209 290 -358 440
-417 416 -926 659 -1474 704 -138 11 -189 11 -308 -1z m516 -63 c135 -25 298
-76 458 -142 100 -41 276 -129 315 -156 16 -11 31 -18 34 -14 22 21 303 -203
482 -384 241 -244 434 -545 571 -890 43 -109 57 -153 41 -130 -10 13 -11 13
-11 0 0 -8 5 -22 10 -30 9 -13 10 -13 10 0 2 54 59 -151 89 -317 32 -181 43
-351 38 -594 -5 -247 -12 -312 -57 -538 -30 -153 -40 -187 -40 -140 l-1 24
-14 -25 -15 -25 6 30 c3 17 10 47 15 67 49 194 74 435 73 708 0 301 -29 519
-100 755 -15 50 -27 103 -26 118 1 15 -3 25 -7 22 -5 -2 -26 39 -47 93 -98
248 -264 516 -470 758 -139 164 -413 405 -509 449 -49 23 -105 39 -105 31 0
-2 33 -23 73 -46 119 -70 206 -131 255 -178 39 -37 41 -40 12 -20 -65 46 -202
118 -212 112 -22 -14 -64 11 -124 73 -35 37 -67 63 -71 60 -4 -4 10 -24 30
-45 20 -21 37 -41 37 -45 0 -4 -20 -4 -44 -1 -24 4 -59 1 -79 -5 -42 -14 -87
-63 -87 -95 0 -49 57 -92 106 -80 24 6 35 27 12 22 -26 -5 -68 13 -78 32 -13
24 -4 61 13 57 7 -1 11 6 9 16 -4 22 35 37 91 36 l42 0 -51 -23 c-64 -29 -85
-68 -44 -81 21 -7 50 9 50 27 0 6 -7 5 -15 -2 -12 -10 -15 -10 -15 4 0 9 8 16
20 16 13 0 20 -7 20 -20 0 -16 5 -19 30 -13 33 6 35 2 20 -28 -12 -22 -36 -25
-43 -6 -4 9 -8 8 -16 -3 -7 -11 -6 -19 4 -29 11 -12 19 -12 44 -1 35 14 50 53
32 81 -18 30 -14 32 47 27 159 -12 451 -227 636 -467 92 -120 192 -272 250
-382 60 -110 58 -123 -3 -29 -57 88 -154 186 -207 209 -30 13 -45 30 -69 76
-16 32 -36 61 -44 63 -10 4 -12 0 -6 -14 12 -32 18 -60 8 -47 -5 7 -14 9 -23
3 -8 -5 -22 -4 -33 2 -27 14 -31 4 -7 -17 l21 -19 -28 -12 -28 -12 33 -1 c33
-1 38 -7 24 -29 -6 -9 -21 -11 -50 -6 -45 7 -49 12 -29 33 10 10 7 11 -15 6
-22 -6 -28 -4 -28 9 0 8 -9 20 -20 26 -11 6 -20 15 -20 20 0 13 36 13 61 0 26
-14 24 -6 -6 25 -25 24 -73 36 -60 15 3 -5 1 -10 -5 -10 -7 0 -10 6 -8 13 3 6
24 13 49 15 24 2 48 7 53 13 16 15 38 10 63 -13 13 -12 26 -19 29 -15 10 9
-44 54 -74 62 -18 4 -30 2 -38 -9 -8 -11 -28 -16 -68 -16 -71 0 -74 -16 -13
-83 26 -28 43 -56 43 -69 -1 -20 7 -25 57 -38 55 -14 62 -13 120 7 57 20 63
20 91 6 32 -16 216 -191 216 -205 0 -4 -16 4 -36 17 -20 14 -43 25 -51 25 -11
0 -11 4 -3 20 20 38 -60 55 -84 18 -17 -27 30 -71 67 -64 72 15 180 -102 253
-275 124 -293 188 -760 155 -1124 l-6 -70 -12 60 c-7 33 -19 93 -28 134 -10
48 -15 110 -13 179 3 98 1 107 -16 110 -18 4 -19 -1 -12 -94 4 -54 5 -96 2
-94 -2 3 -29 65 -60 138 -52 124 -55 135 -41 155 18 26 20 115 3 152 -19 41
-46 32 -60 -20 -7 -25 -16 -45 -21 -45 -5 0 -24 16 -41 35 -18 19 -36 35 -40
35 -8 0 13 -42 25 -50 5 -3 6 -16 3 -28 -6 -20 -8 -21 -35 -7 -35 19 -58 61
-68 126 -8 48 1 69 12 29 3 -12 14 -20 27 -20 20 0 22 4 18 40 l-4 41 26 -28
c46 -51 53 -64 66 -111 11 -42 13 -44 13 -15 1 42 -37 114 -82 152 -34 30 -57
39 -57 22 0 -4 -11 -6 -24 -4 -31 6 -40 -19 -21 -64 9 -20 13 -43 10 -52 -2
-9 2 -29 10 -45 18 -35 18 -36 2 -36 -7 0 -21 -6 -31 -13 -17 -13 -17 -15 -2
-45 20 -39 53 -62 88 -62 22 0 27 -5 30 -27 2 -22 9 -29 31 -31 16 -2 34 2 42
8 10 8 18 8 33 -1 19 -12 85 -110 78 -116 -2 -2 -22 6 -45 18 -48 25 -71 16
-52 -20 13 -23 26 -27 36 -11 20 32 88 -26 105 -89 6 -23 14 -49 17 -58 5 -12
3 -14 -7 -8 -7 4 -3 -5 8 -21 25 -35 46 -118 62 -243 13 -104 10 -152 -22
-320 l-22 -114 -13 74 c-10 57 -10 89 -2 140 10 56 9 74 -5 120 -21 67 -40 93
-61 86 -20 -8 -20 -27 1 -27 19 0 44 -59 43 -102 -1 -27 -3 -28 -6 -8 -8 49
-16 56 -23 20 l-6 -35 -28 63 c-16 34 -33 62 -37 62 -13 0 -11 -17 7 -51 15
-30 15 -31 -6 -24 -32 10 -21 -16 13 -33 15 -7 27 -17 27 -23 0 -18 -80 36
-89 61 -15 38 -25 160 -14 160 6 0 8 -11 6 -24 -3 -13 1 -27 7 -31 18 -11 31
16 17 34 -10 11 -9 13 3 9 8 -2 25 -20 38 -39 l24 -34 -8 30 c-11 48 -23 65
-46 65 -12 0 -29 7 -39 16 -10 9 -23 13 -28 9 -15 -8 -14 -61 1 -102 9 -26 9
-41 1 -64 -13 -32 -6 -58 22 -94 14 -17 17 -18 25 -5 8 13 12 13 27 -4 17 -17
17 -18 -3 -12 -26 8 -41 -19 -22 -41 16 -20 63 -43 86 -43 72 0 75 -212 7
-411 -43 -124 -147 -342 -204 -428 -22 -35 -41 -64 -41 -67 0 -23 -245 -352
-263 -354 -4 0 8 30 26 68 19 37 45 98 58 135 27 78 71 137 101 137 11 0 32
10 46 21 25 20 25 21 5 16 l-22 -5 19 39 c21 40 26 84 12 93 -8 5 -72 -86
-105 -149 -20 -37 -20 -19 -2 65 8 36 14 79 15 95 0 17 5 47 11 68 l10 37 25
-30 c32 -37 54 -38 114 -1 26 16 55 31 66 33 25 4 30 35 10 57 -15 16 -15 19
4 36 11 10 20 26 20 36 0 25 -39 59 -67 59 -27 0 -27 -3 -8 49 17 49 22 102
11 119 -11 19 -55 14 -84 -9 l-27 -21 -7 41 c-9 52 -15 61 -38 61 -12 0 -26
16 -40 46 -24 48 -44 64 -62 46 -16 -16 -47 -112 -48 -146 0 -23 -3 -27 -17
-21 -38 14 -81 17 -103 5 -20 -11 -22 -17 -17 -62 4 -27 15 -64 27 -83 l20
-33 -35 -35 c-19 -19 -35 -42 -35 -50 0 -24 77 -87 108 -87 26 -1 26 -2 -11
-21 -25 -13 -37 -25 -33 -35 3 -8 1 -14 -5 -14 -5 0 -14 11 -19 25 -10 27 -11
28 -34 19 -21 -8 -20 -43 3 -97 20 -45 35 -57 76 -57 17 0 25 -6 27 -22 2 -17
11 -24 33 -26 43 -5 55 -19 55 -66 0 -87 -62 -245 -145 -372 -80 -120 -210
-239 -414 -378 -89 -61 -114 -66 -63 -13 17 17 45 62 62 99 18 38 36 68 41 68
15 0 80 62 95 92 24 46 47 169 34 182 -7 7 -15 5 -28 -8 -12 -14 -14 -20 -4
-23 6 -3 12 -15 12 -28 0 -33 -39 -135 -52 -135 -5 0 -8 6 -5 14 4 10 0 12
-14 9 -22 -6 -24 5 -6 32 49 71 58 95 25 61 -12 -12 -14 1 -13 85 2 109 9 134
19 67 12 -79 27 -80 24 -1 -4 79 -17 105 -43 83 -8 -7 -15 -21 -15 -32 0 -35
-29 -88 -54 -97 -17 -7 -28 -24 -39 -58 -30 -92 -31 -128 -6 -198 l24 -64 -27
-53 c-73 -148 -251 -270 -530 -363 l-106 -35 -30 30 c-43 42 -91 41 -162 -5
-45 -28 -61 -33 -91 -28 -31 4 -38 2 -44 -16 -5 -17 -14 -21 -49 -21 -23 0
-46 3 -49 7 -13 12 35 53 70 59 32 6 73 44 73 69 0 6 -9 20 -19 29 -39 35 -91
-5 -57 -43 18 -19 17 -20 -15 -34 -19 -8 -48 -26 -66 -41 -30 -25 -32 -26 -38
-7 -8 26 17 74 52 99 22 17 25 23 16 33 -10 10 -18 8 -37 -10 -13 -13 -30 -36
-36 -52 -15 -35 -30 -38 -30 -6 1 41 35 102 60 104 29 2 36 11 22 25 -8 8 -15
8 -26 -1 -13 -11 -16 -8 -22 15 -11 41 -45 95 -58 91 -19 -6 -56 -69 -56 -95
0 -20 -2 -22 -15 -12 -8 7 -22 9 -31 6 -14 -6 -11 -12 19 -40 20 -18 41 -46
47 -62 11 -29 5 -94 -8 -94 -4 0 -19 21 -34 46 -27 43 -52 63 -65 50 -4 -3 5
-19 19 -34 32 -35 41 -61 27 -78 -9 -11 -19 -8 -55 18 -24 17 -44 35 -44 40 0
4 -9 8 -19 8 -26 0 -34 15 -21 40 12 23 40 27 40 5 0 -17 2 -18 24 -9 26 10
19 24 -20 40 -32 14 -38 13 -60 -1 -13 -8 -24 -20 -24 -25 0 -29 25 -61 69
-89 28 -17 51 -35 51 -40 0 -12 -112 -20 -130 -9 -10 6 -6 7 14 3 26 -5 28 -4
17 9 -8 9 -22 16 -32 16 -11 0 -42 16 -70 35 -73 50 -147 47 -190 -8 -16 -20
-17 -20 -90 -2 -175 43 -378 131 -465 201 -78 64 -109 100 -144 168 -34 67
-36 87 -14 121 25 38 29 126 9 192 -21 68 -32 84 -54 81 -15 -3 -21 12 -37
100 -3 13 -12 22 -23 22 -20 0 -31 -19 -31 -54 0 -13 -5 -37 -11 -53 -8 -23
-15 -30 -29 -26 -29 8 -36 -22 -17 -81 9 -28 19 -66 23 -85 6 -35 67 -111 89
-111 7 0 31 -37 53 -83 22 -45 56 -99 76 -119 20 -20 36 -40 36 -43 0 -20
-280 190 -389 291 -70 65 -133 179 -178 322 -24 78 -25 90 -15 142 15 69 15
83 2 75 -5 -3 -10 -18 -10 -33 0 -15 -4 -33 -9 -40 -13 -21 -22 131 -10 167 9
27 14 29 40 24 30 -6 75 16 94 46 13 20 16 121 4 121 -5 0 -9 -11 -9 -24 0
-17 -7 -25 -24 -28 -17 -4 -23 -1 -19 9 7 19 -17 16 -40 -5 -20 -17 -20 -17
-3 16 9 18 29 37 44 43 15 6 38 20 51 32 l23 22 -7 -25 c-7 -25 -7 -25 13 -5
28 28 37 88 17 105 -14 11 -21 11 -45 -3 -37 -22 -44 -21 -36 6 16 53 25 168
15 197 -11 30 -32 39 -44 20 -3 -5 -17 -10 -31 -10 -20 0 -29 -9 -45 -47 -11
-27 -23 -60 -26 -75 -6 -33 -10 -34 -36 -11 -18 17 -20 17 -33 -2 -20 -27 -8
-105 16 -105 6 0 6 10 0 25 -6 15 -6 26 1 30 5 4 7 11 4 16 -4 5 -2 9 4 9 6 0
13 -17 16 -37 3 -21 8 -49 11 -62 4 -20 3 -22 -9 -13 -17 14 -27 6 -27 -22 0
-15 3 -17 9 -8 13 21 21 -9 14 -52 -7 -42 -29 -54 -37 -20 -4 15 -14 24 -26
24 -42 0 -12 -102 36 -120 31 -12 40 -35 53 -151 16 -128 47 -250 86 -336 19
-40 32 -73 30 -73 -2 0 -35 37 -74 83 -159 189 -327 485 -396 699 -53 164 -65
342 -30 449 14 41 23 52 53 65 47 19 70 40 94 88 16 31 18 44 9 63 -8 16 -8
30 -1 43 5 10 11 55 12 99 3 95 -8 117 -45 83 -13 -12 -29 -22 -35 -22 -7 0
-18 -12 -25 -27 -6 -15 -20 -36 -29 -45 -10 -10 -20 -29 -24 -43 -5 -19 -11
-24 -24 -20 -37 12 -52 -98 -25 -179 13 -38 14 -60 4 -138 -6 -51 -9 -127 -6
-168 6 -73 5 -74 -8 -37 -23 62 -73 313 -90 447 -26 218 -16 367 36 506 27 72
54 104 88 104 32 0 66 32 58 55 -9 21 -37 19 -64 -7 -14 -13 -23 -17 -23 -9 0
20 95 173 124 200 l26 25 16 -22 c19 -27 48 -28 67 -2 13 19 16 19 52 5 20 -9
51 -15 69 -13 26 3 32 8 34 32 2 16 -1 33 -7 39 -18 18 -13 25 29 54 30 19 40
32 38 47 -3 18 -11 21 -55 24 -29 2 -53 5 -53 6 0 2 7 20 15 39 17 41 20 103
5 112 -12 8 -72 -18 -89 -38 -16 -20 -8 -22 21 -6 17 9 19 8 14 -9 -8 -24 12
-40 26 -21 7 10 8 2 4 -25 -6 -43 -28 -72 -78 -99 -18 -10 -25 -12 -15 -4 18
15 24 32 7 22 -6 -4 -6 3 0 21 14 35 4 44 -11 10 -14 -31 -29 -34 -29 -6 0 11
-4 20 -9 20 -12 0 -23 -29 -15 -41 3 -5 0 -9 -5 -9 -16 0 -13 55 4 96 13 31
17 34 35 24 12 -6 26 -9 33 -6 7 2 5 5 -4 5 -9 1 -19 10 -22 21 -13 52 -61
-12 -72 -96 -4 -37 -11 -54 -21 -54 -24 0 -39 -46 -24 -74 11 -22 7 -32 -44
-116 -32 -50 -61 -103 -67 -117 -17 -44 -18 -21 -3 51 15 74 8 100 -20 77 -11
-9 -15 -33 -14 -89 1 -61 -6 -97 -30 -172 -17 -52 -36 -113 -41 -135 -13 -50
-5 195 10 330 16 142 66 353 120 511 57 169 84 225 151 314 57 77 96 104 136
95 37 -8 72 27 55 53 -12 18 -23 20 -63 7 l-25 -7 27 28 c15 16 52 44 82 62
l54 33 33 -20 c64 -39 184 -21 184 27 0 12 10 28 22 37 31 22 70 105 53 115
-7 5 -19 6 -26 3 -6 -2 -15 0 -19 6 -10 16 -71 13 -85 -4 -12 -14 -8 -15 27
-9 40 6 68 -8 38 -20 -8 -3 -15 -13 -15 -22 0 -12 6 -15 26 -10 19 5 24 4 18
-6 -15 -27 -40 -51 -63 -59 -18 -7 -21 -12 -12 -23 25 -30 -45 -41 -94 -16
l-39 20 44 0 c40 1 43 2 27 14 -17 13 -15 15 18 36 19 12 35 26 35 32 0 6 -11
3 -25 -6 -31 -21 -39 -20 -31 2 3 9 -3 5 -15 -10 -24 -33 -34 -35 -36 -8 -2
18 48 70 68 70 5 0 9 5 9 10 0 6 -9 10 -20 10 -28 0 -96 -65 -117 -111 -12
-27 -29 -45 -53 -57 -46 -21 -137 -112 -185 -185 -21 -31 -40 -55 -43 -53 -6
7 92 188 155 285 73 112 192 262 269 338 103 102 265 207 395 258 85 34 105
33 112 -5 9 -43 54 -63 158 -68 l86 -4 21 36 c17 28 28 36 50 36 31 0 68 32
57 49 -3 6 -13 11 -22 11 -8 0 -28 11 -44 25 -16 13 -35 22 -43 19 -7 -3 -19
2 -26 11 -16 20 -84 20 -140 0 -24 -8 -45 -13 -47 -11 -7 7 89 86 141 116 133
75 439 172 654 205 276 44 585 25 872 -52 102 -27 336 -118 409 -159 46 -25
71 -24 36 3 -44 33 -247 124 -360 161 -368 122 -747 136 -1150 42 -88 -20
-310 -91 -341 -109 -10 -6 -44 -22 -74 -37 -75 -37 -49 -7 49 58 147 95 386
168 696 212 17 2 113 3 215 1 146 -2 213 -9 320 -29z m300 -56 c8 -5 11 -10 5
-10 -5 0 -17 5 -25 10 -8 5 -10 10 -5 10 6 0 17 -5 25 -10z m-1718 -268 c-119
-121 -130 -130 -182 -142 -30 -6 -62 -16 -70 -21 -70 -40 -144 -78 -147 -75
-5 4 112 99 205 165 39 29 72 57 72 62 0 12 -33 -9 -132 -83 -45 -33 -72 -49
-65 -37 16 28 185 141 198 133 5 -3 16 0 24 6 19 15 208 120 217 120 4 0 -50
-58 -120 -128z m-352 -22 c0 -11 -4 -20 -9 -20 -5 0 -7 9 -4 20 3 11 7 20 9
20 2 0 4 -9 4 -20z m503 -82 c44 -17 77 -45 40 -33 -14 4 -31 1 -44 -8 -29
-21 -7 -31 37 -17 19 7 38 9 41 6 3 -3 -3 -8 -13 -11 -42 -13 -69 -32 -79 -53
-6 -15 -15 -20 -25 -16 -8 4 -24 7 -35 8 -23 1 -89 45 -80 54 3 3 19 -4 35
-16 40 -30 49 -27 17 6 l-26 27 44 -3 c37 -3 45 -1 45 13 0 12 -6 16 -20 12
-13 -3 -24 1 -30 14 -6 11 -22 20 -38 20 -24 1 -23 2 8 9 42 10 73 7 123 -12z
m-186 -14 c-3 -3 -12 -4 -19 -1 -8 3 -5 6 6 6 11 1 17 -2 13 -5z m-348 -77
c-24 -22 -84 -78 -132 -124 -49 -46 -93 -80 -98 -77 -13 8 -4 18 112 125 54
50 106 92 116 94 10 1 17 7 16 12 -1 5 5 10 14 10 10 0 -1 -15 -28 -40z m421
-41 c0 -4 -7 -5 -16 -2 -9 3 -21 6 -29 6 -7 0 -15 8 -19 18 -3 9 -9 23 -12 30
-3 7 12 1 35 -15 22 -15 40 -32 41 -37z m3110 -176 c0 -29 -11 -50 -25 -50 -7
0 -15 3 -18 8 -2 4 -3 2 -1 -5 1 -6 -6 -19 -17 -29 -10 -9 -19 -12 -19 -6 0 6
5 14 10 17 6 3 10 14 10 24 0 23 39 73 51 66 5 -4 9 -15 9 -25z m-3863 -118
c-45 -55 -120 -155 -166 -223 -46 -68 -88 -127 -93 -130 -5 -3 -10 -10 -10
-15 -2 -20 -72 -164 -80 -164 -5 0 -6 -4 -3 -10 3 -5 3 -10 -2 -10 -4 0 -9
-12 -10 -27 0 -15 -8 -32 -17 -38 -9 -7 -13 -14 -10 -18 3 -3 -8 -36 -24 -74
-55 -127 -126 -363 -156 -523 -8 -41 -20 -136 -26 -210 -7 -74 -16 -139 -20
-143 -10 -11 -3 -199 16 -438 15 -196 47 -394 89 -543 14 -49 22 -92 20 -94
-3 -3 -5 1 -5 9 0 11 -2 11 -9 1 -5 -8 -19 27 -39 100 -61 219 -86 363 -101
588 -8 114 -6 148 16 253 3 18 1 27 -7 27 -23 0 4 300 46 505 65 323 207 677
372 930 103 159 225 310 242 300 4 -2 18 7 30 20 48 51 27 22 -53 -73z m4447
-371 c24 -27 31 -92 16 -146 -13 -48 -30 -71 -23 -31 6 32 -15 43 -26 14 -6
-14 -10 -17 -11 -8 -1 11 -4 9 -9 -4 -6 -17 -11 -13 -29 25 -25 51 -19 95 19
143 24 31 40 33 63 7z m-5272 -66 c-3 -18 0 -25 12 -25 9 0 16 8 16 18 1 29
38 -24 46 -65 6 -32 -8 -149 -20 -160 -8 -9 -57 46 -67 76 -21 60 -33 30 -14
-35 2 -6 -1 -17 -5 -24 -7 -11 -14 -10 -37 5 -72 46 -94 79 -107 170 l-6 40
21 -27 c26 -35 43 -36 37 -3 -4 19 -1 25 12 25 23 0 70 -55 71 -83 1 -20 2
-20 9 3 4 14 8 39 9 56 1 16 6 35 13 42 16 16 16 16 10 -13z m5427 6 c-32 -26
-18 -37 17 -15 l27 18 -6 -38 c-7 -41 -50 -111 -76 -125 -9 -5 -32 -11 -51
-15 -19 -3 -30 -3 -24 0 7 3 10 13 7 23 -3 11 0 29 7 41 6 12 9 24 7 27 -3 3
-13 -9 -22 -27 -21 -40 -27 -35 -14 13 14 50 46 85 94 102 54 19 61 18 34 -4z
m-4739 -11 c0 -5 -6 -7 -13 -4 -8 3 -26 0 -42 -6 -25 -9 -26 -9 -15 5 14 16
70 21 70 5z m3840 -10 c0 -5 -8 -7 -17 -4 -15 5 -15 3 2 -11 20 -17 20 -17 0
-13 -28 5 -33 38 -6 38 12 0 21 -4 21 -10z m617 -32 c19 -20 36 -51 42 -78 12
-53 8 -62 -9 -21 -7 17 -19 36 -27 42 -11 10 -11 4 3 -30 20 -51 15 -59 -19
-27 -34 32 -35 18 -2 -18 14 -15 30 -24 35 -21 6 3 10 2 10 -4 0 -5 -10 -12
-22 -14 l-23 -4 23 -8 c22 -7 29 -20 14 -29 -5 -3 -15 5 -23 16 -8 12 -25 31
-37 42 -13 12 -30 33 -38 48 -16 31 -19 118 -4 118 6 0 10 -7 10 -15 0 -8 7
-15 15 -15 21 0 19 38 -2 43 -15 4 -14 5 3 6 11 0 34 -14 51 -31z m-5013 -76
c-6 -4 -18 -18 -27 -32 -14 -20 -17 -21 -17 -6 0 18 41 59 50 50 2 -3 0 -8 -6
-12z m0 -56 c-3 -14 -13 -26 -21 -26 -12 0 -12 2 1 16 9 8 16 23 16 31 0 9 2
14 5 11 4 -3 3 -17 -1 -32z m5360 28 c14 -5 12 -11 -9 -36 -31 -36 -27 -46 9
-23 14 10 26 14 26 9 0 -16 -54 -64 -72 -64 -15 0 -17 -4 -9 -19 6 -10 7 -21
4 -25 -12 -12 -84 -6 -113 9 -37 19 -38 23 -2 18 19 -3 23 -2 13 5 -10 7 -7
12 15 20 29 10 29 10 4 12 l-25 1 25 14 c23 13 23 14 5 16 -11 1 -23 1 -27 0
-5 0 -8 3 -8 8 0 13 99 61 126 61 12 0 29 -3 38 -6z m-193 -46 c9 -17 7 -25
-11 -42 -16 -15 -24 -17 -27 -8 -3 6 -13 12 -24 12 -23 0 -25 27 -3 51 18 21
51 14 65 -13z m-5392 -14 c17 -14 41 -40 53 -57 20 -29 20 -31 2 -14 -12 9
-24 14 -29 10 -4 -5 -5 -2 -1 5 4 7 1 12 -9 12 -9 0 -13 -4 -10 -10 3 -5 0
-10 -7 -10 -10 0 -10 -2 1 -9 10 -6 10 -10 1 -16 -16 -10 -76 3 -90 20 -7 8
-18 15 -26 15 -7 0 -15 4 -18 9 -4 5 2 7 13 4 23 -6 38 14 22 30 -43 43 48 53
98 11z m135 -124 l6 -35 -20 25 c-21 26 -25 42 -13 53 10 11 20 -4 27 -43z
m5156 23 c-1 -20 -29 -74 -30 -57 0 6 3 26 6 43 7 33 24 43 24 14z m-655 -373
c3 -5 -3 -10 -14 -10 -12 0 -21 5 -21 10 0 6 6 10 14 10 8 0 18 -4 21 -10z
m-3794 -16 c11 -14 10 -19 -13 -39 -15 -13 -33 -25 -40 -27 -10 -4 -8 -10 6
-27 17 -19 17 -25 0 -18 -4 1 -10 -8 -15 -20 -10 -28 -24 -29 -75 -6 l-39 18
33 3 c39 4 42 17 5 27 l-28 7 35 13 35 13 -29 1 -29 1 24 26 c41 45 105 58
130 28z m-665 -46 c4 -6 2 -14 -4 -16 -7 -2 -12 -10 -12 -18 0 -8 -4 -14 -10
-14 -11 0 -14 43 -3 53 10 10 21 8 29 -5z m444 -53 c-7 -8 -17 -15 -23 -15 -5
0 -2 9 8 20 21 23 35 19 15 -5z m4580 15 c0 -5 -5 -10 -11 -10 -5 0 -7 5 -4
10 3 6 8 10 11 10 2 0 4 -4 4 -10z m-532 -106 c20 -9 31 -18 24 -21 -7 -3 -23
2 -35 10 -13 8 -32 17 -42 20 -17 4 -18 5 -2 6 10 0 34 -6 55 -15z m2 -44 c18
-12 2 -12 -25 0 -13 6 -15 9 -5 9 8 0 22 -4 30 -9z m125 -20 c22 -42 18 -51
-5 -12 -20 33 -24 42 -15 42 2 0 11 -13 20 -30z m-4917 -309 c18 -32 22 -47
15 -67 -8 -25 -10 -26 -26 -10 -16 16 -17 15 -18 -21 l-1 -38 -24 50 c-25 53
-30 52 -14 -3 7 -28 7 -33 -5 -28 -17 6 -21 -9 -5 -19 5 -3 15 -15 21 -27 10
-19 9 -20 -17 -14 -28 6 -28 6 -9 -10 19 -16 18 -16 -25 -11 l-45 6 29 -16
c19 -10 25 -18 17 -23 -9 -5 -8 -11 4 -24 15 -15 14 -16 -20 -16 -44 0 -86 21
-114 56 -28 36 -27 54 4 54 29 0 31 7 10 36 -8 12 -11 24 -8 28 10 9 58 7 88
-4 25 -9 26 -9 18 12 -13 37 -10 126 6 140 10 10 12 10 7 0 -10 -16 20 -45 40
-38 10 4 13 13 8 33 -7 27 -7 27 17 12 13 -9 34 -35 47 -58z m5516 14 c-4 -8
-3 -23 1 -32 6 -16 8 -16 25 5 21 25 25 22 35 -28 6 -36 -25 -143 -46 -155 -5
-4 -5 4 1 19 10 28 3 59 -11 50 -5 -3 -9 -22 -10 -42 0 -35 -1 -36 -10 -12
-20 50 -23 144 -5 178 17 33 30 44 20 17z m-5389 -25 c22 -42 19 -137 -5 -180
l-20 -35 2 47 c2 57 -7 72 -17 27 l-7 -33 -13 30 c-13 29 -13 29 -14 4 -1 -20
-3 -22 -11 -10 -15 23 -12 75 6 120 17 43 34 53 34 20 0 -12 7 -20 16 -20 12
0 15 7 12 30 -6 38 -2 38 17 0z m5585 11 c-18 -34 -11 -45 14 -22 28 27 36 15
26 -41 -10 -51 -50 -101 -107 -132 -41 -23 -48 -25 -56 -11 -4 8 -12 13 -18
10 -14 -9 -11 9 12 72 26 70 50 102 92 125 42 22 50 22 37 -1z m120 -175 c0
-8 -6 -17 -12 -20 -9 -3 -8 -8 5 -16 17 -11 16 -13 -10 -36 -15 -13 -45 -27
-65 -30 -42 -7 -49 -19 -18 -27 11 -3 27 -20 34 -39 16 -37 13 -47 -8 -29 -11
10 -16 9 -23 -4 -12 -21 -65 -10 -99 22 -35 32 -18 55 21 29 15 -10 29 -15 32
-12 3 2 -4 11 -16 18 -28 17 -27 38 1 30 15 -3 19 -2 14 7 -4 6 -2 18 4 26 9
11 9 18 -4 30 -21 21 -21 20 17 44 39 25 127 30 127 7z m-5800 -21 c13 -14 19
-25 13 -25 -6 0 -13 -10 -17 -22 -5 -22 -6 -22 -20 -3 -8 11 -12 24 -9 29 4 5
1 6 -5 2 -15 -9 0 -40 26 -55 15 -9 15 -10 -3 -11 -53 0 -84 59 -49 94 22 22
37 20 64 -9z m5627 -41 c7 -21 -23 -46 -51 -42 l-28 3 26 28 c25 27 46 32 53
11z m-4910 -93 c-2 -97 -12 -118 -72 -148 l-30 -15 23 21 c22 22 31 48 12 36
-13 -8 -13 21 1 47 6 11 8 22 5 25 -2 3 -15 -16 -29 -43 -28 -55 -41 -46 -31
24 5 39 15 55 55 95 27 26 53 47 58 47 6 0 9 -38 8 -89z m-637 17 c0 -13 -17
-9 -30 7 -6 8 -8 20 -4 26 5 9 11 7 21 -6 7 -11 13 -22 13 -27z m5435 22 c6
-9 -42 -46 -50 -38 -6 6 24 48 35 48 5 0 11 -4 15 -10z m-5620 -10 c17 -4 25
-8 18 -9 -6 0 -22 -15 -35 -33 l-23 -32 36 22 c20 12 39 22 43 22 8 0 -35 -83
-48 -92 -6 -4 -32 -8 -58 -8 l-48 0 20 20 c12 12 18 25 14 31 -4 8 -10 7 -17
0 -36 -36 -36 23 0 61 27 28 44 32 98 18z m680 -152 c-4 -85 -4 -85 -15 -68
-11 17 -14 113 -3 123 16 17 21 2 18 -55z m135 -23 c0 -4 -7 -19 -15 -35 -13
-25 -17 -27 -39 -17 l-24 11 31 23 c30 22 47 29 47 18z m4570 -171 c0 -8 -32
-33 -43 -34 -4 0 -3 9 3 20 10 18 40 29 40 14z m-692 -97 c12 -13 25 -37 28
-55 5 -24 11 -31 28 -29 18 2 21 -4 24 -45 l3 -48 39 25 c43 27 56 30 65 15 3
-6 -1 -7 -9 -4 -9 3 -16 1 -16 -5 0 -6 9 -11 21 -11 19 0 20 -4 14 -42 -10
-58 -27 -88 -65 -116 l-32 -24 18 27 c13 19 14 29 5 38 -8 8 -11 8 -11 -1 0
-6 -7 -9 -15 -6 -10 4 -13 15 -9 37 l5 32 -21 -35 -21 -35 5 40 c5 37 4 38 -9
21 -14 -19 -15 -19 -34 3 l-20 23 -3 -39 -3 -38 -13 42 c-15 51 -8 84 26 118
14 14 22 28 18 32 -12 12 -40 -12 -57 -47 -16 -33 -16 -34 -28 -11 -7 12 -10
36 -6 54 7 36 37 107 46 107 3 0 15 -10 27 -23z m447 -215 c-42 -122 -118
-289 -123 -273 -2 6 -8 9 -13 5 -15 -9 -11 3 25 74 18 37 50 114 71 172 35 98
65 154 73 132 1 -4 -13 -54 -33 -110z m-547 68 c34 -21 45 -41 56 -100 l6 -35
-15 30 c-11 23 -14 25 -15 11 0 -18 -3 -16 -30 9 -16 16 -30 24 -30 18 0 -5 9
-18 19 -27 29 -26 23 -56 -10 -56 -30 0 -66 37 -74 74 -8 43 -13 91 -8 79 7
-18 33 -16 33 2 0 21 29 19 68 -5z m-3398 0 c0 -5 -7 -10 -16 -10 -8 0 -12 5
-9 10 3 6 10 10 16 10 5 0 9 -4 9 -10z m-60 -30 c-9 -6 -10 -10 -3 -10 7 0 10
-13 8 -36 -4 -40 0 -39 23 7 19 36 42 50 42 24 0 -9 -3 -14 -7 -12 -5 3 -7
-18 -5 -46 5 -68 -27 -147 -59 -147 -19 0 -21 5 -17 39 5 57 -19 33 -28 -27
-7 -41 -8 -44 -15 -22 -12 43 -10 104 7 159 15 51 49 99 62 86 4 -3 0 -10 -8
-15z m4286 -92 c-4 -20 -21 -48 -41 -68 l-34 -33 5 28 c4 22 2 26 -10 22 -27
-11 -25 7 5 47 20 28 29 34 29 22 0 -15 3 -16 15 -6 8 7 15 20 15 28 0 12 3
13 11 5 7 -7 9 -25 5 -45z m-5078 16 c25 -17 46 -54 56 -99 7 -29 7 -29 -8
-10 -8 11 -16 16 -16 11 0 -5 -6 -3 -14 3 -12 10 -13 6 -6 -26 l9 -38 -35 37
c-25 28 -34 47 -34 73 0 33 14 48 22 23 3 -7 10 -8 17 -3 11 6 8 12 -10 26
-29 23 -12 25 19 3z m143 -46 c0 -22 1 -22 8 -3 8 19 8 19 19 -2 17 -31 15
-58 -8 -103 -20 -38 -38 -56 -26 -25 3 8 1 15 -5 15 -6 0 -8 3 -6 8 3 4 -1 13
-9 20 -12 11 -14 9 -15 -10 0 -18 -3 -16 -13 12 -14 37 -9 57 22 93 21 23 32
21 33 -5z m191 -53 c20 -51 26 -75 19 -90 -10 -22 -7 -27 -57 103 -20 55 -21
63 -7 60 9 -2 28 -32 45 -73z m4891 54 c40 -11 52 -29 15 -22 -33 5 -57 -12
-40 -29 10 -10 17 -10 35 0 12 7 3 -5 -20 -27 -49 -47 -108 -59 -141 -27 -10
9 -5 15 23 25 51 18 34 32 -20 15 -42 -12 -45 -12 -36 4 32 60 103 84 184 61z
m-845 -11 c15 -15 16 -65 1 -74 -15 -9 -30 16 -23 39 3 9 0 17 -6 17 -8 0 -11
-11 -8 -30 4 -24 2 -27 -9 -19 -25 22 -10 79 22 79 6 0 16 -5 23 -12z m213 -9
c26 -26 21 -54 -9 -53 -26 1 -27 -4 -6 -34 14 -21 14 -22 -11 -22 -15 0 -24
-4 -20 -10 3 -5 15 -10 27 -10 17 0 18 -2 8 -15 -13 -16 -60 -21 -60 -6 0 5
-8 12 -17 16 -15 5 -16 4 -5 -6 6 -7 12 -19 12 -26 0 -18 -37 -35 -60 -28 -22
7 -50 53 -50 81 0 15 4 14 26 -7 l27 -24 -6 23 c-4 18 -1 22 21 23 15 0 36 4
46 8 26 10 4 24 -27 17 -12 -3 -16 -3 -9 0 6 3 10 10 6 15 -3 5 3 9 12 9 16 0
16 1 0 19 -17 19 -17 20 11 35 38 21 59 20 84 -5z m-327 -4 c17 -13 18 -15 3
-15 -9 0 -17 -4 -17 -10 0 -5 5 -10 11 -10 8 0 7 -6 -2 -16 -12 -15 -11 -16 9
-10 21 7 22 6 11 -13 -17 -26 -7 -36 23 -20 23 12 23 12 4 -10 -27 -30 -101
-29 -146 2 -19 12 -35 28 -38 35 -2 7 12 28 31 47 38 38 78 45 111 20z m-4315
-43 c14 -11 25 -27 25 -36 -1 -9 2 -14 6 -11 4 3 14 -3 21 -13 12 -15 12 -16
-2 -5 -9 7 -18 10 -22 7 -3 -3 -18 2 -34 12 -20 12 -17 7 12 -19 38 -35 39
-36 15 -37 -23 -1 -24 -2 -7 -14 16 -12 15 -14 -12 -19 -36 -8 -96 9 -133 36
-33 25 -36 41 -7 53 l20 9 -21 28 c-22 28 -20 31 25 39 31 6 86 -9 114 -30z
m939 -20 c9 7 6 0 -7 -15 -14 -15 -27 -24 -30 -21 -3 3 1 9 9 14 13 8 12 10
-2 10 -18 0 -23 11 -11 24 4 3 11 -1 16 -9 7 -13 11 -14 25 -3z m-653 -11 c3
-5 -3 -12 -12 -14 -14 -4 -13 -5 5 -6 27 -1 32 -41 5 -42 -12 0 -13 -2 -5 -6
22 -9 -6 -31 -33 -25 -31 5 -41 20 -26 35 6 6 11 18 11 27 0 30 41 53 55 31z
m4875 -43 c47 -24 70 -56 31 -43 -22 7 -30 -10 -8 -18 6 -3 -13 -6 -43 -6 -51
-1 -56 1 -73 30 -19 34 -21 33 31 12 6 -3 12 0 12 6 0 7 -8 14 -17 17 -54 17
-58 23 -18 23 24 1 59 -8 85 -21z m-4270 8 c0 -3 -4 -8 -10 -11 -5 -3 -10 -1
-10 4 0 6 5 11 10 11 6 0 10 -2 10 -4z m3505 -69 c7 -65 -8 -196 -25 -226 -13
-23 -13 3 1 53 10 37 3 144 -9 132 -10 -11 -42 27 -42 50 0 20 37 52 62 54 3
0 9 -29 13 -63z m-4245 33 c24 -24 25 -34 4 -54 -18 -19 -28 -20 -55 -6 -24
13 -25 56 -1 69 24 15 29 14 52 -9z m545 -30 c3 -5 1 -10 -4 -10 -6 0 -11 5
-11 10 0 6 2 10 4 10 3 0 8 -4 11 -10z m115 -57 c-15 -56 -33 -82 -26 -38 3
17 8 47 11 69 5 27 9 36 17 28 8 -8 7 -25 -2 -59z m-354 -12 c2 -24 0 -31 -6
-21 -5 8 -7 23 -4 34 4 10 2 16 -2 13 -5 -3 -10 7 -11 21 -1 24 0 24 9 7 6
-10 12 -35 14 -54z m4233 -12 c-30 -62 -195 -315 -210 -325 -4 -2 -11 1 -15 7
-5 8 -3 9 6 4 10 -6 12 -4 7 8 -3 9 -2 16 4 14 6 -1 27 26 48 60 21 34 42 59
46 55 5 -4 5 1 2 11 -8 22 2 49 16 40 6 -3 7 -1 3 5 -7 12 66 136 76 127 3 -3
13 11 23 30 9 20 19 34 22 32 2 -3 -10 -34 -28 -68z m-4684 41 c-17 -19 -17
-19 12 -16 27 4 29 1 31 -30 2 -22 -5 -44 -20 -64 -21 -30 -48 -40 -48 -19 0
5 -5 7 -10 4 -6 -4 -8 -10 -6 -14 3 -4 -4 -8 -15 -8 -23 -2 -25 20 -3 38 14
11 14 13 0 21 -9 5 -21 6 -26 3 -15 -9 -12 22 5 55 18 34 40 49 74 50 23 0 24
-1 6 -20z m4292 6 c-3 -8 1 -20 9 -26 8 -7 14 -17 14 -22 0 -6 -7 -5 -16 3
-13 10 -17 10 -24 -2 -8 -12 -12 -11 -27 4 -17 17 -17 18 1 11 15 -6 17 -4 11
6 -6 9 -4 11 5 5 10 -6 12 -4 7 9 -4 10 -3 15 3 11 6 -3 10 -1 10 4 0 6 3 11
6 11 3 0 4 -6 1 -14z m-4209 -51 c-7 -32 9 -32 24 0 24 53 42 3 23 -65 -5 -19
-4 -22 4 -10 10 13 12 13 21 0 14 -22 13 -27 -12 -44 -33 -23 -65 -20 -84 9
-17 26 -15 54 5 108 13 34 25 35 19 2z m453 -117 c70 -123 133 -221 181 -284
21 -29 37 -56 36 -60 -4 -12 27 -55 34 -48 3 3 48 -40 99 -96 89 -96 236 -230
308 -280 19 -13 30 -25 24 -27 -28 -10 -246 168 -350 285 -119 134 -229 273
-204 257 9 -5 12 -3 9 6 -3 8 -10 14 -15 14 -6 0 -15 4 -20 9 -5 5 -2 6 6 1 9
-5 12 -3 9 6 -3 8 -10 13 -17 12 -6 -2 -18 11 -26 27 -9 17 -34 58 -56 92 -22
34 -37 68 -34 76 3 8 0 10 -6 6 -7 -4 -10 -1 -7 7 3 8 -3 31 -14 52 -35 70
-10 37 43 -55z m3754 82 c8 -13 -5 -13 -25 0 -13 8 -13 10 2 10 9 0 20 -4 23
-10z m146 -337 c-17 -20 -37 -38 -46 -39 -13 -2 -14 0 -4 12 6 8 14 12 17 10
2 -3 15 8 29 25 14 16 27 29 30 29 2 0 -9 -17 -26 -37z m264 -13 c-5 -15 -3
-18 9 -14 9 3 16 11 17 18 0 6 5 0 10 -13 17 -42 -15 -105 -70 -136 -10 -6
-12 -2 -6 16 6 20 5 22 -6 12 -19 -19 -32 -16 -26 7 3 11 1 23 -4 26 -5 3 -9
0 -9 -5 0 -6 -5 -10 -12 -8 -6 1 -15 -9 -19 -23 -6 -18 -7 -13 -3 15 7 51 42
97 85 111 19 6 35 12 37 13 2 0 1 -8 -3 -19z m-103 -16 c-2 -11 -11 -30 -19
-44 -9 -13 -22 -44 -29 -70 -11 -40 -12 -42 -14 -15 -1 17 -6 39 -11 50 -7 16
-8 12 -6 -17 4 -46 -11 -35 -23 17 -10 46 -7 54 32 82 38 26 75 25 70 -3z
m-4323 0 c2 -2 -4 -12 -13 -23 -12 -13 -14 -21 -6 -26 6 -4 8 -16 4 -28 -5
-20 -5 -20 7 -6 8 9 22 19 31 22 15 5 16 3 7 -17 -14 -30 -80 -67 -111 -63
-32 5 -35 36 -7 60 l24 19 -27 -16 c-16 -9 -28 -12 -28 -7 0 6 -6 8 -14 5 -26
-10 -28 17 -5 43 32 34 78 54 109 47 14 -3 27 -7 29 -10z m964 -48 c10 -25 26
-46 38 -49 24 -6 24 -32 0 -77 l-19 -35 -12 44 c-6 24 -15 62 -20 85 -7 32 -8
22 -5 -42 4 -81 4 -82 -16 -71 -19 10 -18 7 5 -27 27 -40 35 -67 14 -46 -18
18 -31 15 -24 -5 4 -13 0 -11 -14 6 -13 15 -20 38 -20 67 0 23 -4 46 -10 49
-16 10 -12 48 4 42 9 -4 19 8 30 37 9 23 16 47 16 54 0 25 16 10 33 -32z
m3137 21 c0 -2 -12 -14 -27 -28 l-28 -24 24 28 c23 25 31 32 31 24z m-525
-103 l-18 -76 -14 32 c-20 48 -25 31 -8 -26 8 -27 11 -52 6 -57 -5 -5 -12 4
-16 22 -3 17 -11 33 -16 36 -5 4 -9 19 -9 35 0 21 12 42 43 74 23 24 44 42 46
40 2 -2 -4 -38 -14 -80z m466 33 c-6 -8 -8 -16 -5 -20 3 -3 -47 -60 -113 -127
-111 -115 -262 -238 -396 -323 -60 -39 -228 -125 -214 -111 8 8 36 25 174 104
43 24 94 58 113 75 19 17 62 51 95 75 33 25 125 111 205 192 130 132 174 174
141 135z m521 -20 c-2 -22 2 -30 17 -34 12 -3 21 -7 21 -10 0 -18 -25 -43 -52
-53 l-33 -11 31 -13 c33 -15 74 -60 74 -82 0 -8 -9 -14 -21 -14 -16 0 -19 -4
-14 -20 5 -17 2 -20 -27 -22 -50 -2 -71 1 -95 13 -25 13 -40 41 -17 32 7 -3
14 0 14 6 0 6 -4 11 -8 11 -5 0 -17 7 -28 15 -18 15 -16 16 26 10 l45 -6 -35
20 c-34 20 -35 30 -1 12 20 -11 47 2 37 18 -4 6 -18 11 -32 11 -13 0 -24 5
-24 10 0 6 11 10 25 10 28 0 35 19 8 21 -10 1 -21 1 -25 0 -13 -2 -9 27 5 33
6 4 -6 4 -28 2 l-40 -5 35 30 c45 40 67 49 110 46 32 -2 35 -4 32 -30z m-4692
8 c-7 -8 -17 -15 -22 -15 -6 0 -5 7 2 15 7 8 17 15 22 15 6 0 5 -7 -2 -15z
m4729 -16 c-22 -14 -33 -10 -19 6 7 8 17 12 22 9 6 -4 5 -10 -3 -15z m-384 1
c3 -5 1 -10 -4 -10 -6 0 -11 5 -11 10 0 6 2 10 4 10 3 0 8 -4 11 -10z m-3765
-30 c20 -5 45 -17 55 -25 18 -13 16 -13 -17 0 -50 20 -118 20 -118 0 0 -8 -4
-15 -10 -15 -5 0 -10 9 -10 21 0 11 4 18 9 14 5 -3 12 -1 16 5 8 13 30 13 75
0z m595 -45 c4 -31 5 -59 1 -62 -3 -4 -6 1 -6 10 0 24 -19 21 -30 -5 -9 -19
-9 -17 -6 12 15 113 31 130 41 45z m3238 1 c-3 -4 -9 -2 -14 5 -13 22 -11 31
5 17 8 -7 12 -17 9 -22z m91 -2 c28 -28 15 -64 -23 -64 -30 0 -51 16 -51 40 0
38 46 53 74 24z m-134 -49 c-14 -16 -60 -21 -60 -6 0 9 22 16 59 20 11 1 11
-2 1 -14z m55 -47 c0 -13 3 -24 8 -25 4 -2 19 -15 32 -30 l25 -28 -5 30 c-5
27 -4 28 7 12 38 -54 37 -54 33 -20 -2 18 -6 37 -10 43 -3 5 -3 10 2 10 14 0
51 -64 58 -100 8 -47 -10 -97 -29 -81 -11 10 -16 9 -23 -3 -15 -27 -81 28 -94
78 -6 23 -14 56 -19 75 -6 23 -6 39 2 48 14 17 14 17 13 -9z m-3278 -261 c23
-17 69 -47 103 -66 33 -19 58 -36 56 -39 -6 -5 -215 121 -216 131 0 14 15 7
57 -26z m-259 -52 c31 -29 26 -31 -25 -10 -45 19 -63 19 -37 1 17 -13 15 -14
-26 -14 l-46 1 21 23 c28 32 78 32 113 -1z m47 5 c3 -6 -1 -7 -9 -4 -18 7 -21
14 -7 14 6 0 13 -4 16 -10z m1525 -56 c0 -18 -5 -45 -11 -61 l-11 -28 -13 25
c-17 30 -19 74 -4 101 15 29 39 6 39 -37z m-1657 6 c42 0 52 -9 29 -27 -15
-12 -12 -13 23 -7 22 4 43 11 46 17 4 5 15 7 25 3 15 -6 12 -10 -17 -32 -29
-21 -42 -25 -83 -21 -31 3 -54 11 -62 22 -7 9 -30 23 -51 30 -35 13 -36 14
-10 15 15 0 27 5 27 10 0 7 6 7 19 0 11 -5 35 -10 54 -10z m3084 -15 c24 -16
23 -35 -1 -35 -32 0 -36 -26 -11 -60 14 -19 25 -38 25 -42 0 -15 -114 -9 -137
7 -16 11 -22 12 -25 3 -4 -10 -10 -10 -31 -1 -30 14 -36 33 -11 33 15 0 15 2
0 25 -22 34 -3 32 23 -2 16 -22 20 -24 21 -10 0 15 4 16 23 7 l22 -11 -23 20
-23 20 48 4 c38 3 44 5 26 11 -13 5 -23 12 -23 17 0 4 -15 9 -32 11 -18 2 -32
8 -31 13 5 27 114 20 160 -10z m-458 -19 c-10 -9 -69 -36 -69 -32 0 7 52 35
64 36 5 0 7 -2 5 -4z m-2459 -16 c0 -5 -7 -10 -15 -10 -9 0 -12 -6 -9 -17 5
-14 4 -15 -4 -4 -7 10 -13 8 -26 -10 -12 -18 -16 -20 -16 -7 0 9 12 26 26 37
29 23 44 27 44 11z m1685 -41 c4 -6 5 -12 2 -15 -7 -7 -37 7 -37 17 0 13 27
11 35 -2z m645 -9 c-8 -5 -19 -10 -25 -10 -5 0 -3 5 5 10 8 5 20 10 25 10 6 0
3 -5 -5 -10z m-50 -20 c-8 -5 -19 -10 -25 -10 -5 0 -3 5 5 10 8 5 20 10 25 10
6 0 3 -5 -5 -10z m-1182 -62 c71 -43 27 -54 -105 -26 -56 12 -58 22 -9 44 36
16 67 11 114 -18z m840 16 c12 -8 22 -19 22 -24 0 -4 -33 -13 -72 -19 -40 -7
-85 -14 -100 -16 -43 -7 -33 7 30 42 64 36 88 40 120 17z m-448 -75 c0 -9 -6
-21 -13 -27 -21 -18 -39 21 -26 55 10 27 11 27 25 9 8 -11 14 -27 14 -37z
m-190 -10 c0 -14 -32 -26 -87 -32 -52 -6 -70 2 -60 26 5 14 147 20 147 6z m-2
-117 c2 -7 -2 -10 -12 -6 -9 3 -16 11 -16 16 0 13 23 5 28 -10z m187 -36 c7
-44 -8 -92 -25 -81 -16 10 -22 65 -10 100 15 44 27 37 35 -19z"/>
<path d="M3944 6036 c-3 -8 -4 -24 -2 -37 2 -18 15 -25 70 -38 104 -27 169
-89 219 -211 12 -30 77 -188 145 -350 179 -432 420 -1023 589 -1447 l149 -373
57 0 58 0 65 168 c36 92 106 272 156 400 130 335 613 1547 643 1614 45 100
132 179 225 202 44 12 47 14 50 49 l3 37 -328 -2 -328 -3 0 -34 c0 -34 1 -34
61 -47 76 -15 119 -37 140 -69 30 -46 14 -148 -49 -315 -108 -286 -586 -1522
-591 -1527 -1 -2 -20 41 -41 95 -21 53 -139 351 -262 662 -414 1042 -407 1022
-384 1082 12 33 62 66 111 74 80 12 80 12 80 49 l0 35 -415 0 c-351 0 -416 -2
-421 -14z"/>
<path d="M7790 6583 c1 -18 19 -35 29 -28 9 5 9 10 0 21 -12 15 -29 19 -29 7z"/>
<path d="M2575 6330 c3 -5 8 -10 11 -10 2 0 4 5 4 10 0 6 -5 10 -11 10 -5 0
-7 -4 -4 -10z"/>
<path d="M8040 5190 c0 -5 5 -10 11 -10 5 0 7 5 4 10 -3 6 -8 10 -11 10 -2 0
-4 -4 -4 -10z"/>
<path d="M8132 5025 c9 -19 14 -22 25 -14 11 10 10 14 -4 25 -27 20 -34 17
-21 -11z"/>
<path d="M2360 5029 c0 -5 5 -7 10 -4 6 3 10 8 10 11 0 2 -4 4 -10 4 -5 0 -10
-5 -10 -11z"/>
<path d="M3068 4973 c-22 -24 -23 -43 -3 -43 18 0 28 21 23 46 -3 14 -5 14
-20 -3z"/>
<path d="M2235 4930 c-8 -13 5 -13 25 0 13 8 13 10 -2 10 -9 0 -20 -4 -23 -10z"/>
<path d="M6780 4303 c0 -22 2 -25 10 -13 13 20 13 40 0 40 -5 0 -10 -12 -10
-27z"/>
<path d="M2686 4015 c-3 -9 0 -15 9 -15 8 0 15 7 15 15 0 8 -4 15 -9 15 -5 0
-11 -7 -15 -15z"/>
<path d="M2587 3903 c-4 -3 -7 -11 -7 -17 0 -6 5 -5 12 2 6 6 9 14 7 17 -3 3
-9 2 -12 -2z"/>
<path d="M3570 3185 c13 -14 26 -25 28 -25 3 0 -5 11 -18 25 -13 14 -26 25
-28 25 -3 0 5 -11 18 -25z"/>
<path d="M7190 3313 c0 -5 5 -15 10 -23 8 -12 10 -11 10 8 0 12 -4 22 -10 22
-5 0 -10 -3 -10 -7z"/>
<path d="M7223 3071 c2 -24 4 -26 20 -17 22 14 21 18 -3 33 -17 12 -19 10 -17
-16z"/>
<path d="M6580 2840 c0 -5 10 -10 23 -10 18 0 19 2 7 10 -19 13 -30 13 -30 0z"/>
<path d="M6570 2735 c-11 -13 -8 -15 15 -15 23 0 26 2 15 15 -7 8 -14 15 -15
15 -1 0 -8 -7 -15 -15z"/>
<path d="M5313 2534 c-4 -11 1 -22 12 -30 24 -18 40 -18 55 1 10 12 10 18 0
30 -17 20 -59 19 -67 -1z"/>
</g>
</svg>
